<svg width="748" height="25" viewBox="0 0 748 25" fill="none" xmlns="http://www.w3.org/2000/svg">
<path d="M1 15.9939L38.2078 6.53627C40.0119 6.07769 41.9108 6.15723 43.6702 6.76506L77.9025 18.5912C88.5174 22.2584 97.7032 10.3215 91.4395 1V1L178.894 15.3902C181.319 15.7893 183.797 15.7378 186.204 15.2385L254.83 1L318.288 24.0848V24.0848C312.61 16.4032 317.937 5.51073 327.486 5.27628L501.665 1V1C490.127 3.29296 491.244 20.1396 502.984 20.8881L546.078 23.6354C550.695 23.9297 555.308 22.9941 559.445 20.924L589.606 5.83333L655.562 1H707.027H748" stroke="#858599"/>
</svg>
