<svg width="743" height="32" viewBox="0 0 743 32" fill="none" xmlns="http://www.w3.org/2000/svg">
<path d="M742 15.6949L707.827 24.3811C704.043 25.343 700.06 25.1761 696.37 23.9012L659.205 11.0618C642.403 5.2574 623.783 8.80976 610.299 20.3921L606 24.0847L584.5 24.0847H562.5L520 24.0847L456.542 0.999954V0.999954C468.76 3.75809 466.984 21.6878 454.463 21.9952L343.35 24.7232L286.829 22.067C282.586 21.8676 282.419 15.6552 286.645 15.2283V15.2283C293.506 14.5352 295.499 24.3342 288.912 26.376L275 30.6888L49.334 11.4856C38.9705 10.6037 31.5434 21.278 35.9726 30.6888V30.6888L-5 30.6888" stroke="#858599"/>
</svg>
