<svg width="1263" height="944" viewBox="0 0 1263 944" fill="none" xmlns="http://www.w3.org/2000/svg">
<path d="M1061.75 760.396C1064.05 773.922 976.322 676.378 934.951 626.473C905.556 631.485 884.251 753.599 881.945 740.073C226.285 535.827 -60.4452 340.05 10.7518 365.716C867.649 370.124 362.438 554.201 1061.75 760.396Z" fill="#C3BAB3"/>
<path d="M908.926 36.8433C912.365 64.2424 773.381 104.252 745.982 107.692C730.897 473.237 349.513 124.709 501.622 87.9758C1000.12 57.4643 57.2879 78.5687 84.687 75.1291C103.262 18.3733 905.486 9.44409 908.926 36.8433Z" fill="#BEB4AD" fill-opacity="0.4"/>
<path d="M1262.5 772C1262.5 799.614 1240.11 822 1212.5 822C1184.89 822 996 967.614 996 940C996 912.386 1184.89 722 1212.5 722C1240.11 722 1262.5 744.386 1262.5 772Z" fill="#C3BAB3"/>
</svg>
