<svg width="99" height="76" viewBox="0 0 99 76" fill="none" xmlns="http://www.w3.org/2000/svg">
<g filter="url(#filter0_i_118_447)">
<path d="M93.4002 11.8873C96.5501 14.8971 98.4083 18.6629 98.4967 23.3949C87.9583 27.0711 82.6373 32.1935 80.2719 37.8881C77.8921 43.6175 78.5529 49.8192 79.6856 55.4543C79.9694 56.8662 80.2841 58.2482 80.5902 59.5806C80.6135 59.6824 80.6369 59.7838 80.6601 59.885C80.9418 61.1106 81.2132 62.2914 81.4457 63.4221C81.951 65.8792 82.2605 68.0471 82.1018 69.8473C81.9447 71.6284 81.3349 73.0018 80.0336 73.9503C78.7073 74.9169 76.5859 75.5 73.2794 75.5C59.9948 75.5 41.7614 69.5322 26.8365 61.0272C19.3795 56.7778 12.7769 51.9109 8.04551 46.8677C3.30382 41.8135 0.5 36.646 0.5 31.7885C0.5 26.7724 1.04413 23.0034 2.33255 19.9952C3.61443 17.0022 5.64963 14.7243 8.7063 12.7185C11.7771 10.7034 15.8691 8.96898 21.2538 7.071C24.8801 5.79279 29.0703 4.44774 33.907 2.8952C36.2291 2.14982 38.7001 1.35661 41.3294 0.500011C54.6992 0.50354 69.0386 1.40039 80.0286 4.78548C85.5333 6.48103 90.1579 8.7892 93.4002 11.8873Z" stroke="#111128"/>
</g>
<defs>
<filter id="filter0_i_118_447" x="0" y="0" width="101" height="81" filterUnits="userSpaceOnUse" color-interpolation-filters="sRGB">
<feFlood flood-opacity="0" result="BackgroundImageFix"/>
<feBlend mode="normal" in="SourceGraphic" in2="BackgroundImageFix" result="shape"/>
<feColorMatrix in="SourceAlpha" type="matrix" values="0 0 0 0 0 0 0 0 0 0 0 0 0 0 0 0 0 0 127 0" result="hardAlpha"/>
<feOffset dx="2" dy="5"/>
<feGaussianBlur stdDeviation="2.5"/>
<feComposite in2="hardAlpha" operator="arithmetic" k2="-1" k3="1"/>
<feColorMatrix type="matrix" values="0 0 0 0 0.0156863 0 0 0 0 0.00784314 0 0 0 0 0.152941 0 0 0 1 0"/>
<feBlend mode="normal" in2="shape" result="effect1_innerShadow_118_447"/>
</filter>
</defs>
</svg>
