<svg width="363" height="495" viewBox="0 0 363 495" fill="none" xmlns="http://www.w3.org/2000/svg">
<path d="M38.2491 43.3332C39.1269 37.8985 42.261 33.0881 46.8777 30.0894L87.3725 3.78688C91.5804 1.05369 96.68 0.047766 101.611 0.978302L270.698 32.8893C277.434 34.1606 283.008 38.8759 285.379 45.3084L360.531 249.245C361.805 252.702 362.073 256.45 361.305 260.053L321.924 444.816C320.331 452.287 314.523 458.14 307.065 459.791L155.419 493.348C149.417 494.676 143.14 493.096 138.482 489.085L7.27602 376.105C2.97404 372.401 0.5 367.006 0.5 361.329V278.605C0.5 277.563 0.583435 276.524 0.749503 275.495L38.2491 43.3332Z" fill="#C7BEB8" stroke="#B5ABA4"/>
</svg>
